<mxfile host="65bd71144e">
    <diagram id="SgA_qAOusEtsAZYRhVHF" name="Page-1">
        <mxGraphModel dx="849" dy="815" grid="1" gridSize="10" guides="1" tooltips="1" connect="1" arrows="1" fold="1" page="1" pageScale="1" pageWidth="850" pageHeight="1100" math="0" shadow="0">
            <root>
                <mxCell id="0"/>
                <mxCell id="1" parent="0"/>
                <mxCell id="2" value="&lt;font color=&quot;#ffff00&quot; style=&quot;font-size: 36px;&quot;&gt;&lt;b style=&quot;&quot;&gt;Algorithms_and_Problem_solving_patterns&lt;/b&gt;&lt;/font&gt;" style="text;html=1;align=center;verticalAlign=middle;resizable=0;points=[];autosize=1;strokeColor=none;fillColor=none;" vertex="1" parent="1">
                    <mxGeometry x="50" y="30" width="770" height="60" as="geometry"/>
                </mxCell>
                <mxCell id="3" value="&lt;font color=&quot;#ff0000&quot;&gt;&lt;b&gt;OBJECTIVES&lt;/b&gt;&lt;/font&gt;" style="text;html=1;align=center;verticalAlign=middle;resizable=0;points=[];autosize=1;strokeColor=none;fillColor=none;fontSize=36;fontColor=#FFFF00;" vertex="1" parent="1">
                    <mxGeometry x="110" y="110" width="250" height="60" as="geometry"/>
                </mxCell>
                <mxCell id="4" value="&lt;div style=&quot;text-align: left;&quot;&gt;&lt;span style=&quot;font-size: 18px; color: rgb(255, 255, 255); background-color: initial;&quot;&gt;--&amp;gt; Define what an algoriithm is&amp;nbsp;&lt;/span&gt;&lt;/div&gt;&lt;font style=&quot;font-size: 18px;&quot; color=&quot;#ffffff&quot;&gt;&lt;div style=&quot;text-align: left;&quot;&gt;&lt;span style=&quot;background-color: initial;&quot;&gt;--&amp;gt; Devise a plan to solve algorithms&lt;/span&gt;&lt;/div&gt;&lt;div style=&quot;text-align: left;&quot;&gt;&lt;span style=&quot;background-color: initial;&quot;&gt;--&amp;gt; Compare and contrast problem solving&lt;/span&gt;&lt;/div&gt;&lt;div style=&quot;text-align: left;&quot;&gt;&lt;span style=&quot;background-color: initial;&quot;&gt;patters including frequency counters, two&lt;/span&gt;&lt;/div&gt;&lt;div style=&quot;text-align: left;&quot;&gt;&lt;span style=&quot;background-color: initial;&quot;&gt;pointer problems and divide and conquer&lt;/span&gt;&lt;/div&gt;&lt;/font&gt;" style="text;html=1;align=center;verticalAlign=middle;resizable=0;points=[];autosize=1;strokeColor=none;fillColor=none;fontSize=36;fontColor=#FF0000;" vertex="1" parent="1">
                    <mxGeometry x="80" y="160" width="360" height="140" as="geometry"/>
                </mxCell>
                <mxCell id="5" value="&lt;font style=&quot;color: rgb(0, 255, 255); font-size: 36px;&quot;&gt;WHAT IS AN&amp;nbsp;&lt;br&gt;ALGORITHM?&lt;br&gt;&lt;/font&gt;A process or set of steps to&amp;nbsp;&lt;br&gt;accomplsh a certain task." style="text;html=1;align=center;verticalAlign=middle;resizable=0;points=[];autosize=1;strokeColor=none;fillColor=none;fontSize=18;fontColor=#FFFFFF;" vertex="1" parent="1">
                    <mxGeometry x="90" y="340" width="260" height="140" as="geometry"/>
                </mxCell>
                <mxCell id="6" value="&lt;font color=&quot;#0000cc&quot;&gt;Why do I need to know this?&lt;/font&gt;&lt;br&gt;&lt;font style=&quot;font-size: 18px;&quot;&gt;Almost everything that you do in programming involves&lt;br&gt;&lt;/font&gt;&lt;font style=&quot;font-size: 18px;&quot;&gt;some kind of algorithm!&lt;br&gt;&lt;/font&gt;&lt;font size=&quot;3&quot;&gt;It's&amp;nbsp; tha foundation for being a successful problem solving and developer Also..&lt;br&gt;&lt;/font&gt;&lt;font color=&quot;#ff0080&quot;&gt;INTERVIEWS&lt;/font&gt;" style="text;html=1;align=center;verticalAlign=middle;resizable=0;points=[];autosize=1;strokeColor=none;fillColor=none;fontSize=36;fontColor=#FFFFFF;" vertex="1" parent="1">
                    <mxGeometry x="50" y="520" width="580" height="230" as="geometry"/>
                </mxCell>
                <mxCell id="7" value="&lt;font color=&quot;#00ffff&quot;&gt;HOW DO YOU IMPROVE?&lt;/font&gt;&lt;br&gt;&lt;div style=&quot;text-align: left;&quot;&gt;&lt;br&gt;&lt;/div&gt;&lt;font color=&quot;#ffffff&quot;&gt;&lt;div style=&quot;text-align: left;&quot;&gt;&lt;span style=&quot;background-color: initial;&quot;&gt;1. Devise a plan for solving problems.&lt;/span&gt;&lt;/div&gt;&lt;div style=&quot;text-align: left;&quot;&gt;&lt;span style=&quot;background-color: initial;&quot;&gt;2. Master common problem solving patterns&lt;/span&gt;&lt;/div&gt;&lt;/font&gt;" style="text;html=1;align=center;verticalAlign=middle;resizable=0;points=[];autosize=1;strokeColor=none;fillColor=none;fontSize=18;fontColor=#FF0080;" vertex="1" parent="1">
                    <mxGeometry x="155" y="770" width="370" height="100" as="geometry"/>
                </mxCell>
                <mxCell id="8" value="&lt;font color=&quot;#ffff00&quot;&gt;A simple, Foolproof, Magical, Miraculous, Fail-Self Approach&lt;/font&gt;" style="text;html=1;align=center;verticalAlign=middle;resizable=0;points=[];autosize=1;strokeColor=none;fillColor=none;fontSize=18;fontColor=#FFFFFF;" vertex="1" parent="1">
                    <mxGeometry x="100" y="880" width="500" height="40" as="geometry"/>
                </mxCell>
                <mxCell id="9" value="&lt;font color=&quot;#66cc00&quot;&gt;PROBLEM SOLVING&lt;/font&gt;&lt;br&gt;&lt;font color=&quot;#ffffff&quot;&gt;&lt;br&gt;&lt;div style=&quot;text-align: left;&quot;&gt;&lt;span style=&quot;background-color: initial;&quot;&gt;--&amp;gt; Understand the problem&lt;/span&gt;&lt;/div&gt;&lt;div style=&quot;text-align: left;&quot;&gt;&lt;span style=&quot;background-color: initial;&quot;&gt;--&amp;gt; Explore Concrete Examples&lt;/span&gt;&lt;/div&gt;&lt;div style=&quot;text-align: left;&quot;&gt;&lt;span style=&quot;background-color: initial;&quot;&gt;--&amp;gt; Break it Down&lt;/span&gt;&lt;/div&gt;&lt;div style=&quot;text-align: left;&quot;&gt;&lt;span style=&quot;background-color: initial;&quot;&gt;--&amp;gt; Solve/Simplify&lt;/span&gt;&lt;/div&gt;&lt;div style=&quot;text-align: left;&quot;&gt;&lt;span style=&quot;background-color: initial;&quot;&gt;--&amp;gt; Look back and Refactor&lt;/span&gt;&lt;/div&gt;&lt;/font&gt;" style="text;html=1;align=center;verticalAlign=middle;resizable=0;points=[];autosize=1;strokeColor=none;fillColor=none;fontSize=18;fontColor=#FFFF00;" vertex="1" parent="1">
                    <mxGeometry x="230" y="940" width="270" height="160" as="geometry"/>
                </mxCell>
                <mxCell id="10" value="Note: many of these strategies are&lt;br&gt;adapted from &lt;font color=&quot;#00ffff&quot;&gt;George Polya&lt;/font&gt;, whose&amp;nbsp;&lt;br&gt;book How to solve It is a great&amp;nbsp;&lt;br&gt;reesource for anyone who wants to&amp;nbsp;&lt;br&gt;become a beeter problem solver" style="text;html=1;align=center;verticalAlign=middle;resizable=0;points=[];autosize=1;strokeColor=none;fillColor=none;fontSize=18;fontColor=#FFFFFF;" vertex="1" parent="1">
                    <mxGeometry x="230" y="1120" width="310" height="120" as="geometry"/>
                </mxCell>
                <mxCell id="11" value="&lt;font style=&quot;font-size: 24px;&quot;&gt;UNDERSTAND THE&amp;nbsp; PROBLEM&lt;/font&gt;" style="text;html=1;align=center;verticalAlign=middle;resizable=0;points=[];autosize=1;strokeColor=none;fillColor=none;fontSize=18;fontColor=#00FFFF;" vertex="1" parent="1">
                    <mxGeometry x="155" y="1280" width="370" height="40" as="geometry"/>
                </mxCell>
                <mxCell id="12" value="&lt;div style=&quot;text-align: left;&quot;&gt;&lt;span style=&quot;color: rgb(255, 255, 255); background-color: initial;&quot;&gt;1. Can i restate the problem in my own words?&lt;/span&gt;&lt;/div&gt;&lt;font color=&quot;#ffffff&quot;&gt;&lt;div style=&quot;text-align: left;&quot;&gt;&lt;span style=&quot;background-color: initial;&quot;&gt;2. What are the input that go into the problem?&lt;/span&gt;&lt;/div&gt;&lt;div style=&quot;text-align: left;&quot;&gt;&lt;span style=&quot;background-color: initial;&quot;&gt;3. what are outputs that should come from the&amp;nbsp;&lt;/span&gt;&lt;/div&gt;&lt;span style=&quot;white-space: pre;&quot;&gt;&lt;div style=&quot;text-align: left;&quot;&gt;&lt;span style=&quot;background-color: initial;&quot;&gt;&#9;&lt;/span&gt;&lt;span style=&quot;background-color: initial; white-space-collapse: collapse;&quot;&gt;solution to the problem?&lt;/span&gt;&lt;/div&gt;&lt;/span&gt;&lt;div style=&quot;text-align: left;&quot;&gt;&lt;span style=&quot;background-color: initial;&quot;&gt;4. Can the outputs be determined from the inputs? In&amp;nbsp;&lt;/span&gt;&lt;/div&gt;&lt;span style=&quot;white-space: pre;&quot;&gt;&lt;div style=&quot;text-align: left;&quot;&gt;&lt;span style=&quot;background-color: initial;&quot;&gt;&#9;&lt;/span&gt;&lt;span style=&quot;background-color: initial; white-space-collapse: collapse;&quot;&gt;other words, do I have enough information to solve the&amp;nbsp;&lt;/span&gt;&lt;/div&gt;&lt;/span&gt;&lt;span style=&quot;white-space: pre;&quot;&gt;&lt;div style=&quot;text-align: left;&quot;&gt;&lt;span style=&quot;background-color: initial;&quot;&gt;&#9;&lt;/span&gt;&lt;span style=&quot;background-color: initial; white-space-collapse: collapse;&quot;&gt;problem? (You may not be able to answer this question&lt;/span&gt;&lt;/div&gt;&lt;/span&gt;&lt;span style=&quot;white-space: pre;&quot;&gt;&lt;div style=&quot;text-align: left;&quot;&gt;&lt;span style=&quot;background-color: initial;&quot;&gt;&#9;&lt;/span&gt;&lt;span style=&quot;background-color: initial; white-space-collapse: collapse;&quot;&gt;until&amp;nbsp; you set about solving the problem. That's okay; it's&lt;/span&gt;&lt;/div&gt;&lt;/span&gt;&lt;span style=&quot;white-space: pre;&quot;&gt;&lt;div style=&quot;text-align: left;&quot;&gt;&lt;span style=&quot;background-color: initial;&quot;&gt;&#9;&lt;/span&gt;&lt;span style=&quot;background-color: initial; white-space-collapse: collapse;&quot;&gt;still worth considering the question at this early stage.)&lt;/span&gt;&lt;/div&gt;&lt;/span&gt;&lt;div style=&quot;text-align: left;&quot;&gt;&lt;span style=&quot;background-color: initial;&quot;&gt;5. How should II&amp;nbsp; lable the&amp;nbsp; important pieces of data that are&amp;nbsp;&lt;/span&gt;&lt;/div&gt;&lt;span style=&quot;white-space: pre;&quot;&gt;&lt;div style=&quot;text-align: left;&quot;&gt;&lt;span style=&quot;background-color: initial;&quot;&gt;&#9;&lt;/span&gt;&lt;span style=&quot;background-color: initial; white-space-collapse: collapse;&quot;&gt;a part of the problem?&lt;/span&gt;&lt;/div&gt;&lt;/span&gt;&lt;/font&gt;" style="text;html=1;align=center;verticalAlign=middle;resizable=0;points=[];autosize=1;strokeColor=none;fillColor=none;fontSize=24;fontColor=#00FFFF;" vertex="1" parent="1">
                    <mxGeometry x="100" y="1340" width="670" height="330" as="geometry"/>
                </mxCell>
            </root>
        </mxGraphModel>
    </diagram>
</mxfile>